<svg width="28" height="28" viewBox="0 0 28 28" fill="none" xmlns="http://www.w3.org/2000/svg">
<path d="M10.8353 24.4508C11.4524 24.2657 11.8027 23.6153 11.6175 22.9981C11.4324 22.3809 10.782 22.0307 10.1648 22.2159L10.8353 24.4508ZM2.61633 18.7015C1.99124 18.5452 1.35781 18.9253 1.20154 19.5504C1.04527 20.1755 1.42532 20.8089 2.05042 20.9652L2.61633 18.7015ZM17.5 26.8333C17.5 27.4777 18.0224 28 18.6667 28C19.311 28 19.8334 27.4777 19.8334 26.8333H17.5ZM18.6667 22.3183L17.5036 22.2268C17.5012 22.2573 17.5 22.2878 17.5 22.3183H18.6667ZM17.57 19.2733L17.4408 18.1139C16.9984 18.1632 16.6226 18.4599 16.4721 18.8788C16.3216 19.2977 16.4226 19.7658 16.7324 20.0854L17.57 19.2733ZM25.0834 11.1067H26.25V11.1065L25.0834 11.1067ZM23.3334 6.73167L22.2403 6.32376C22.0842 6.74205 22.1805 7.21275 22.4884 7.53611L23.3334 6.73167ZM23.2284 2.33334L24.3007 1.87373C24.1641 1.55493 23.8927 1.31346 23.5601 1.21483L23.2284 2.33334ZM18.6667 4.06L18.3615 5.18605C18.6875 5.27439 19.0358 5.21714 19.3163 5.02909L18.6667 4.06ZM10.5 4.06L9.85044 5.02909C10.131 5.21714 10.4792 5.27439 10.8052 5.18605L10.5 4.06ZM5.93837 2.33334L5.60662 1.21483C5.27409 1.31346 5.00269 1.55493 4.86605 1.87373L5.93837 2.33334ZM5.83337 6.73167L6.67833 7.53613C6.9862 7.21277 7.08251 6.74206 6.92641 6.32376L5.83337 6.73167ZM4.08337 11.1417H5.25006L5.25003 11.1355L4.08337 11.1417ZM11.5967 19.3083L12.4351 20.1197C12.7427 19.8018 12.8441 19.3374 12.6969 18.9202C12.5498 18.5031 12.1794 18.2051 11.7405 18.1506L11.5967 19.3083ZM10.5 22.3183H11.6667C11.6667 22.291 11.6657 22.2637 11.6638 22.2365L10.5 22.3183ZM9.33337 26.8333C9.33337 27.4777 9.85571 28 10.5 28C11.1444 28 11.6667 27.4777 11.6667 26.8333H9.33337ZM10.1648 22.2159C8.83912 22.6136 7.96005 22.6119 7.35705 22.4708C6.76908 22.3332 6.33338 22.0376 5.92917 21.6334C5.7205 21.4247 5.52473 21.1916 5.31642 20.9307C5.12251 20.6878 4.88692 20.3804 4.6616 20.1159C4.20578 19.5808 3.56818 18.9395 2.61633 18.7015L2.05042 20.9652C2.26523 21.0189 2.50264 21.1797 2.88536 21.6289C3.07931 21.8566 3.25388 22.087 3.4929 22.3864C3.71754 22.6678 3.9775 22.9815 4.27925 23.2833C4.89587 23.8999 5.69975 24.4793 6.82532 24.7427C7.93587 25.0027 9.24429 24.9281 10.8353 24.4508L10.1648 22.2159ZM19.8334 26.8333V22.3183H17.5V26.8333H19.8334ZM19.8298 22.4098C19.9446 20.9505 19.4266 19.5123 18.4077 18.4613L16.7324 20.0854C17.285 20.6554 17.5659 21.4354 17.5036 22.2268L19.8298 22.4098ZM17.6993 20.4328C19.5965 20.2213 21.7608 19.7401 23.4513 18.3186C25.1985 16.8494 26.25 14.544 26.25 11.1067H23.9167C23.9167 14.0394 23.0432 15.6131 21.9496 16.5327C20.7993 17.4999 19.2069 17.917 17.4408 18.1139L17.6993 20.4328ZM26.25 11.1065C26.2497 9.17816 25.508 7.32382 24.1784 5.92723L22.4884 7.53611C23.4051 8.49898 23.9165 9.77744 23.9167 11.1069L26.25 11.1065ZM24.4264 7.13958C25.0631 5.43343 25.0181 3.54756 24.3007 1.87373L22.1561 2.79294C22.6371 3.91526 22.6673 5.17976 22.2403 6.32376L24.4264 7.13958ZM23.2284 2.33334C23.5601 1.21483 23.559 1.2145 23.5579 1.21417C23.5575 1.21405 23.5563 1.21372 23.5556 1.21349C23.554 1.21304 23.5525 1.21259 23.5509 1.21213C23.5477 1.21122 23.5444 1.21029 23.5411 1.20935C23.5344 1.20748 23.5273 1.20556 23.5198 1.20361C23.5049 1.19971 23.4886 1.19569 23.4708 1.19164C23.4352 1.18355 23.3939 1.17537 23.3467 1.16785C23.2523 1.1528 23.1355 1.14052 22.9956 1.13667C22.7152 1.12895 22.3479 1.15525 21.8891 1.25711C20.9735 1.46036 19.7 1.96285 18.0171 3.09092L19.3163 5.02909C20.8185 4.02216 21.8257 3.66131 22.3948 3.53498C22.6782 3.47205 22.8541 3.46699 22.9314 3.46912C22.9704 3.47019 22.9859 3.47313 22.9793 3.47207C22.976 3.47155 22.9673 3.47006 22.9535 3.4669C22.9465 3.46532 22.9383 3.46334 22.9288 3.46085C22.9241 3.45961 22.919 3.45825 22.9137 3.45675C22.911 3.456 22.9082 3.45521 22.9054 3.4544C22.9039 3.45399 22.9025 3.45357 22.9011 3.45314C22.9003 3.45293 22.8992 3.45261 22.8988 3.4525C22.8977 3.45217 22.8966 3.45184 23.2284 2.33334ZM18.9719 2.93396C16.0981 2.15509 13.0687 2.15509 10.1949 2.93396L10.8052 5.18605C13.2794 4.5155 15.8874 4.5155 18.3615 5.18605L18.9719 2.93396ZM11.1496 3.09092C9.46678 1.96285 8.19324 1.46036 7.27768 1.25711C6.81886 1.15525 6.4515 1.12895 6.17115 1.13667C6.03128 1.14052 5.9144 1.1528 5.82001 1.16785C5.77287 1.17537 5.73154 1.18355 5.69594 1.19164C5.67815 1.19569 5.66181 1.19971 5.64692 1.20361C5.63947 1.20556 5.63239 1.20748 5.62568 1.20935C5.62232 1.21029 5.61905 1.21122 5.61587 1.21213C5.61428 1.21259 5.61272 1.21304 5.61118 1.21349C5.6104 1.21372 5.60926 1.21405 5.60888 1.21417C5.60774 1.2145 5.60662 1.21483 5.93837 2.33334C6.27013 3.45184 6.26902 3.45217 6.2679 3.4525C6.26754 3.45261 6.26643 3.45293 6.2657 3.45314C6.26424 3.45357 6.2628 3.45399 6.26138 3.4544C6.25854 3.45521 6.25578 3.456 6.25309 3.45675C6.24772 3.45825 6.24267 3.45961 6.23792 3.46085C6.22844 3.46334 6.22022 3.46532 6.21329 3.4669C6.19941 3.47006 6.19076 3.47155 6.18749 3.47207C6.18082 3.47313 6.19638 3.47019 6.23534 3.46912C6.31264 3.46699 6.48851 3.47205 6.77198 3.53498C7.34101 3.66131 8.3483 4.02216 9.85044 5.02909L11.1496 3.09092ZM4.86605 1.87373C4.14863 3.54756 4.10361 5.43343 4.74034 7.13958L6.92641 6.32376C6.49947 5.17976 6.52966 3.91526 7.0107 2.79294L4.86605 1.87373ZM4.98842 5.92721C3.6489 7.33416 2.9064 9.20527 2.91672 11.1479L5.25003 11.1355C5.24291 9.79615 5.75482 8.50614 6.67833 7.53613L4.98842 5.92721ZM2.91671 11.1417C2.91671 14.5594 3.97051 16.8513 5.71545 18.3186C7.40187 19.7366 9.56151 20.2312 11.4529 20.4661L11.7405 18.1506C9.96857 17.9305 8.37155 17.5034 7.21713 16.5327C6.12123 15.6112 5.25004 14.0473 5.25004 11.1417H2.91671ZM10.7583 18.497C9.75171 19.5372 9.23469 20.9562 9.33625 22.4002L11.6638 22.2365C11.6088 21.4534 11.8892 20.6838 12.4351 20.1197L10.7583 18.497ZM9.33337 22.3183V26.8333H11.6667V22.3183H9.33337Z" fill="white"/>
</svg>
