<svg width="52" height="17" viewBox="0 0 52 17" fill="none" xmlns="http://www.w3.org/2000/svg">
<path fill-rule="evenodd" clip-rule="evenodd" d="M11.0639 11.4822L15.1475 0.0424957V0.0443436H19.5575L13.0043 16.8634H8.59423L4.85486 2.38942C7.49671 3.79451 9.86395 6.62316 10.619 9.22619L11.0639 11.4822ZM21.2379 0.0424957L18.6302 16.8803H22.7982L25.4043 0.0424957H21.2379ZM33.8101 6.90126C32.3536 6.15492 31.4607 5.6512 31.4607 4.88787C31.4785 4.19382 32.2158 3.48278 33.8621 3.48278C35.2163 3.44748 36.2116 3.77769 36.9666 4.10624L37.3449 4.28141L37.9115 0.758528C37.0883 0.428322 35.7829 0.0644849 34.1706 0.0644849C30.0546 0.0644849 27.1563 2.28502 27.1383 5.46088C27.1043 7.80447 29.2133 9.10497 30.7916 9.88513C32.404 10.6854 32.9528 11.2043 32.9528 11.9153C32.935 13.007 31.6491 13.5107 30.4492 13.5107C28.7866 13.5107 27.8935 13.2513 26.5378 12.643L25.9889 12.3836L25.4061 16.0447C26.3852 16.4963 28.1858 16.8937 30.0547 16.9141C34.429 16.9141 37.2753 14.7272 37.3111 11.3425C37.3253 9.48581 36.2132 8.06372 33.8101 6.90126ZM45.3723 0.0946044H48.597L51.958 16.8937H48.1L47.4749 13.5394H42.581L41.3763 16.8803H37.0021L43.1933 1.44925C43.6235 0.391181 44.3786 0.0946044 45.3723 0.0946044ZM43.7945 10.1678C43.8835 10.1594 45.4731 4.71417 45.4731 4.71417L46.7428 10.1678H43.7945Z" fill="#220BFF"/>
<path d="M9.42719 2.21406C9.1027 0.930192 8.06784 0.0643004 6.66237 0.0458221H0.067913L0 0.357366C5.14413 1.64789 9.46187 5.61887 10.8626 9.35406L9.42719 2.21406Z" fill="#FD8500"/>
</svg>
