<svg width="33" height="26" viewBox="0 0 33 26" fill="none" xmlns="http://www.w3.org/2000/svg">
<g clip-path="url(#clip0_30_202)">
<path fill-rule="evenodd" clip-rule="evenodd" d="M24.4285 2.29412C25.1373 2.29432 25.8391 2.43416 26.4938 2.7056C27.1485 2.97703 27.7433 3.37465 28.2443 3.87599C28.7453 4.37733 29.1426 4.97248 29.4135 5.62738C29.6845 6.28229 29.8238 6.98424 29.8235 7.69299V18.307C29.8238 19.0158 29.6845 19.7177 29.4135 20.3726C29.1426 21.0275 28.7453 21.6227 28.2443 22.124C27.7433 22.6253 27.1485 23.023 26.4938 23.2944C25.8391 23.5658 25.1373 23.7057 24.4285 23.7059H7.68911C6.98037 23.7057 6.27859 23.5658 5.62388 23.2944C4.96917 23.023 4.37436 22.6253 3.87338 22.124C3.3724 21.6227 2.97507 21.0275 2.7041 20.3726C2.43313 19.7177 2.29382 19.0158 2.29412 18.307V7.69299C2.29382 6.98424 2.43313 6.28229 2.7041 5.62738C2.97507 4.97248 3.3724 4.37733 3.87338 3.87599C4.37436 3.37465 4.96917 2.97703 5.62388 2.7056C6.27859 2.43416 6.98037 2.29432 7.68911 2.29412H24.4285ZM24.4285 0H7.68911C5.64992 0.00243026 3.69499 0.813929 2.25342 2.25622C0.811845 3.69851 0.00141649 5.65379 0 7.69299V18.307C0.00141649 20.3462 0.811845 22.3015 2.25342 23.7438C3.69499 25.1861 5.64992 25.9976 7.68911 26H24.4285C26.4677 25.9976 28.4227 25.1861 29.8642 23.7438C31.3058 22.3015 32.1162 20.3462 32.1176 18.307V7.69299C32.1162 5.65379 31.3058 3.69851 29.8642 2.25622C28.4227 0.813929 26.4677 0.00243026 24.4285 0ZM13.7647 9.17647L19.8824 13L13.7647 16.8235V9.17647ZM13.7647 6.88235C13.375 6.88008 12.9916 6.98021 12.6528 7.17285C12.2942 7.37009 11.9952 7.6603 11.7872 8.0128C11.5792 8.36529 11.4699 8.76718 11.4706 9.17647V16.8235C11.4699 17.2328 11.5792 17.6347 11.7872 17.9872C11.9952 18.3397 12.2942 18.6299 12.6528 18.8271C12.9916 19.0198 13.375 19.1199 13.7647 19.1176C14.1953 19.1191 14.6173 18.9971 14.9806 18.7659L21.0982 14.9424C21.4281 14.7368 21.7001 14.4507 21.8888 14.1108C22.0774 13.771 22.1763 13.3887 22.1763 13C22.1763 12.6113 22.0774 12.229 21.8888 11.8892C21.7001 11.5493 21.4281 11.2632 21.0982 11.0576L14.9806 7.23409C14.6173 7.00293 14.1953 6.88087 13.7647 6.88235Z" fill="#FFEBEB"/>
</g>
<defs>
<clipPath id="clip0_30_202">
<rect width="32.1176" height="26" fill="white"/>
</clipPath>
</defs>
</svg>
